HIERARCHY
ROOT Hips
{
	OFFSET 0.000000 0.000000 0.000000
	CHANNELS 6 Xposition Yposition Zposition Zrotation Yrotation Xrotation 
	JOINT LeftUpLeg_virtual
	{
		OFFSET 0.000000 0.000000 0.000000
		CHANNELS 3 Zrotation Yrotation Xrotation
		JOINT LeftUpLeg
		{
			OFFSET 10.205400 -3.823500 0.155100
			CHANNELS 3 Zrotation Yrotation Xrotation
			JOINT LeftLeg
			{
				OFFSET 0.708757 -12.982077 0.567790
				CHANNELS 3 Zrotation Yrotation Xrotation
				JOINT LeftFoot
				{
					OFFSET -0.708756 -10.717838 -2.184338
					CHANNELS 3 Zrotation Yrotation Xrotation
					JOINT LeftToeBase
					{
						OFFSET 0.108149 -7.191104 7.560241
						CHANNELS 3 Zrotation Yrotation Xrotation
						End Site
						{
							OFFSET 0.000000 0.000000 0.000000
						}
					}
				}
			}
		}
	}
	JOINT RightUpLeg_virtual
	{
		OFFSET 0.000000 0.000000 0.000000
		CHANNELS 3 Zrotation Yrotation Xrotation
		JOINT RightUpLeg
		{
			OFFSET -10.205400 -3.823500 0.005500
			CHANNELS 3 Zrotation Yrotation Xrotation
			JOINT RightLeg
			{
				OFFSET -0.708756 -12.982134 0.610632
				CHANNELS 3 Zrotation Yrotation Xrotation
				JOINT RightFoot
				{
					OFFSET 0.708754 -10.717769 -1.945823
					CHANNELS 3 Zrotation Yrotation Xrotation
					JOINT RightToeBase
					{
						OFFSET -0.108140 -7.191069 7.372968
						CHANNELS 3 Zrotation Yrotation Xrotation
						End Site
						{
							OFFSET 0.000000 0.000000 0.000000
						}
					}
				}
			}
		}
	}
	JOINT Spine_virtual
	{
		OFFSET 0.000000 0.000000 0.000000
		CHANNELS 3 Zrotation Yrotation Xrotation
		JOINT Spine
		{
			OFFSET 0.000000 6.876099 0.125700
			CHANNELS 3 Zrotation Yrotation Xrotation
			JOINT Spine1
			{
				OFFSET 0.000000 8.022060 0.146608
				CHANNELS 3 Zrotation Yrotation Xrotation
				JOINT Spine2
				{
					OFFSET 0.000000 9.168068 0.167552
					CHANNELS 3 Zrotation Yrotation Xrotation
					JOINT Neck_virtual
					{
						OFFSET 0.000000 0.000000 0.000000
						CHANNELS 3 Zrotation Yrotation Xrotation
						JOINT Neck
						{
							OFFSET 0.000000 10.314075 0.188496
							CHANNELS 3 Zrotation Yrotation Xrotation
							JOINT Head
							{
								OFFSET 0.000000 7.643700 -2.377400
								CHANNELS 3 Zrotation Yrotation Xrotation
								End Site
								{
									OFFSET 0.000000 0.000000 0.000000
								}
							}
						}
					}
					JOINT LeftShoulder_virtual
					{
						OFFSET 0.000000 0.000000 0.000000
						CHANNELS 3 Zrotation Yrotation Xrotation
						JOINT LeftShoulder
						{
							OFFSET 4.392200 8.824978 0.174984
							CHANNELS 3 Zrotation Yrotation Xrotation
							JOINT LeftArm
							{
								OFFSET 8.771219 -2.981674 -0.026999
								CHANNELS 3 Zrotation Yrotation Xrotation
								JOINT LeftForeArm
								{
									OFFSET 8.512804 0.000000 -0.000000
									CHANNELS 3 Zrotation Yrotation Xrotation
									JOINT LeftHand
									{
										OFFSET 18.484802 0.000000 -0.000000
										CHANNELS 3 Zrotation Yrotation Xrotation
										End Site
										{
											OFFSET 0.000000 0.000000 0.000000
										}
									}
								}
							}
						}
					}
					JOINT RightShoulder_virtual
					{
						OFFSET 0.000000 0.000000 0.000000
						CHANNELS 3 Zrotation Yrotation Xrotation
						JOINT RightShoulder
						{
							OFFSET -4.392200 8.824993 0.141379
							CHANNELS 3 Zrotation Yrotation Xrotation
							JOINT RightArm
							{
								OFFSET -8.771282 -2.981682 -0.094208
								CHANNELS 3 Zrotation Yrotation Xrotation
								JOINT RightForeArm
								{
									OFFSET -8.494598 0.000000 0.000000
									CHANNELS 3 Zrotation Yrotation Xrotation
									JOINT RightHand
									{
										OFFSET -18.483803 0.000000 0.000001
										CHANNELS 3 Zrotation Yrotation Xrotation
										End Site
										{
											OFFSET 0.000000 0.000000 0.000000
										}
									}
								}
							}
						}
					}
				}
			}
		}
	}
}
MOTION
Frames: 8
Frame Time: 0.033333
-12.034143 36.303425 15.844491 -179.966961 9.028065 179.911677 -2.529717 -4.238035 6.127504 -6.492047 7.397078 -18.609253 9.567684 6.775608 20.005568 -2.661877 -0.681927 7.539040 0.000000 0.000000 0.000000 2.045006 -2.615665 4.603348 0.581522 2.303304 -11.803445 -7.611036 3.240300 14.912111 9.457085 6.077048 10.584561 0.000000 0.000000 0.000000 0.390834 -0.062015 -6.405250 2.066595 -1.537657 -10.443749 -1.803982 -2.026599 8.733812 0.019909 0.005939 0.006199 -2.257749 0.063771 10.207836 -3.272590 -0.104467 9.594759 0.000000 0.000000 0.000000 -0.238839 0.596398 7.680616 -13.348535 -3.327460 1.010513 -52.939751 21.024079 19.156809 -1.703757 -51.865714 8.319378 0.000000 0.000000 0.000000 -4.742159 1.801345 6.778134 25.522271 6.126220 2.805373 51.578880 -17.699242 18.478421 -9.010613 40.662438 -5.433459 0.000000 0.000000 0.000000 
-11.926959 36.301033 15.783925 -179.957808 9.086314 179.965950 -2.552162 -4.003008 6.170126 -6.642177 8.078258 -18.576496 9.462024 7.426256 20.307793 -2.329118 -0.370222 6.929870 0.000000 0.000000 0.000000 2.294781 -2.513429 4.604719 0.334909 2.856805 -11.891674 -7.845685 3.833025 14.663050 10.102026 6.617095 10.225249 0.000000 0.000000 0.000000 0.407778 -0.019529 -6.472808 2.058172 -1.541936 -10.471478 -1.823806 -2.082630 8.740796 -0.012602 -0.005595 -0.043826 -2.247240 0.110436 10.265480 -3.241425 -0.103850 9.608464 0.000000 0.000000 0.000000 -0.211968 0.666463 7.693169 -13.287407 -3.104533 1.032561 -52.939802 21.135071 18.998238 -1.734585 -51.742522 8.364235 0.000000 0.000000 0.000000 -4.713619 1.914992 6.881869 25.663442 6.184429 2.896670 51.600652 -17.681205 18.715161 -9.050369 40.468663 -5.488544 0.000000 0.000000 0.000000 
-11.791729 36.298508 15.722376 179.958846 8.910940 179.989118 -2.584780 -4.083733 6.234438 -6.381007 8.021702 -18.517493 9.414529 7.409236 20.310198 -2.511462 -0.491611 6.877398 0.000000 0.000000 0.000000 2.201671 -2.453529 4.752626 0.636391 2.748046 -11.833377 -7.831431 3.717581 14.762204 9.876040 6.409477 10.081033 0.000000 0.000000 0.000000 0.282901 -0.008174 -6.517631 1.960487 -1.539902 -10.462931 -1.794199 -2.099826 8.757389 -0.001869 -0.028028 -0.018970 -2.227898 0.066595 10.260940 -3.213110 -0.158518 9.619419 0.000000 0.000000 0.000000 -0.182728 0.611404 7.703550 -13.210156 -3.083833 1.073251 -52.977474 21.435108 18.625642 -1.703384 -51.480703 8.370846 0.000000 0.000000 0.000000 -4.681757 1.869935 6.849879 25.789218 6.109054 2.895305 51.538729 -17.855482 18.988757 -8.975194 40.118854 -5.460825 0.000000 0.000000 0.000000 
-11.653424 36.290302 15.683351 -179.985812 8.802399 179.912879 -2.521225 -4.029298 6.259875 -6.000957 7.788681 -18.321870 9.355559 7.305731 20.411015 -2.647384 -0.607694 6.681939 0.000000 0.000000 0.000000 2.227201 -2.409602 4.907678 0.954752 2.611571 -11.762642 -7.791820 3.582009 14.948707 9.739775 6.137447 9.912973 0.000000 0.000000 0.000000 0.250734 0.070685 -6.432188 1.885375 -1.483456 -10.323716 -1.723824 -2.101810 8.762399 0.025522 0.000912 -0.018068 -2.191472 0.083791 10.289562 -3.166493 -0.206583 9.668663 0.000000 0.000000 0.000000 -0.164182 0.552206 7.723156 -13.152647 -3.119574 1.111823 -53.116424 21.893137 18.150717 -1.646634 -51.106894 8.371804 0.000000 0.000000 0.000000 -4.647431 1.789310 6.866706 25.905593 5.983606 2.837422 51.403857 -18.149981 19.288772 -8.767747 39.563068 -5.333343 0.000000 0.000000 0.000000 
-11.517575 36.268173 15.662298 179.980566 8.669294 179.921485 -2.489148 -4.081032 6.219779 -5.670703 7.656888 -18.239267 9.325233 7.342948 20.544912 -2.798662 -0.787326 6.459749 0.000000 0.000000 0.000000 2.130752 -2.328922 4.973506 1.345721 2.671546 -11.742107 -7.543096 3.743371 15.069115 9.063237 5.964829 9.786834 0.000000 0.000000 0.000000 0.190434 0.003438 -6.411635 1.791953 -1.411090 -10.177930 -1.738705 -2.096446 8.776392 0.034012 0.000018 -0.029742 -2.104806 0.019673 10.297920 -3.095318 -0.185123 9.676665 0.000000 0.000000 0.000000 -0.062292 0.529817 7.728913 -13.169336 -3.141280 1.214466 -53.301724 22.514185 17.710428 -1.598229 -50.620858 8.363197 0.000000 0.000000 0.000000 -4.554120 1.763420 6.888436 25.943697 5.879692 2.862261 51.323230 -18.566063 19.540425 -8.709501 38.924456 -5.351210 0.000000 0.000000 0.000000 
-11.374296 36.251167 15.666490 179.993708 8.450776 179.956019 -2.466362 -4.193039 6.197528 -5.306718 7.474676 -18.230695 9.280694 7.297064 20.658792 -2.883875 -0.975858 6.348844 0.000000 0.000000 0.000000 2.127961 -2.328178 4.983802 1.657774 2.316093 -11.848430 -7.549506 3.416124 15.374247 8.886656 6.067990 9.564305 0.000000 0.000000 0.000000 0.173844 -0.053047 -6.366749 1.666664 -1.317621 -10.008154 -1.626416 -2.128068 8.807426 0.014517 -0.014229 -0.009799 -2.059147 0.009376 10.327035 -2.945645 -0.291089 9.617286 0.000000 0.000000 0.000000 -0.044435 0.493976 7.733189 -13.182717 -3.187068 1.448649 -53.425443 23.235612 17.195473 -1.479775 -50.083974 8.276132 0.000000 0.000000 0.000000 -4.503768 1.739617 6.948220 25.980110 5.707057 2.877440 51.220179 -19.125342 19.544597 -8.604175 38.170037 -5.374750 0.000000 0.000000 0.000000 
-11.210613 36.235092 15.686604 179.911458 8.205781 179.980293 -2.470406 -4.313363 6.314076 -4.939399 7.170216 -18.366888 9.257571 7.370812 20.665323 -2.962486 -1.201891 6.436398 0.000000 0.000000 0.000000 2.028827 -2.359315 5.061525 2.026722 2.016030 -11.962869 -7.399615 3.235857 15.641608 8.450180 6.054219 9.435923 0.000000 0.000000 0.000000 0.133666 -0.042637 -6.291290 1.558723 -1.209714 -9.804207 -1.597739 -2.144194 8.844408 0.003638 -0.051272 0.010694 -1.969034 -0.072941 10.310607 -2.769230 -0.349503 9.489401 0.000000 0.000000 0.000000 0.027211 0.495715 7.756766 -13.193104 -3.271221 1.510600 -53.478056 23.928261 16.786443 -1.376456 -49.449388 8.192695 0.000000 0.000000 0.000000 -4.413017 1.704841 6.965097 26.000415 5.514579 2.865807 51.174000 -19.768097 19.357113 -8.503896 37.424294 -5.397153 0.000000 0.000000 0.000000 
-11.031456 36.222805 15.719404 179.978627 7.968141 179.978299 -2.390001 -4.363152 6.471675 -4.530681 6.914371 -18.492239 9.143159 7.254548 20.611148 -3.055079 -1.465139 6.565249 0.000000 0.000000 0.000000 2.056436 -2.318602 5.182678 2.432137 1.625031 -12.132049 -7.197197 3.014024 15.878643 7.967490 6.065118 9.284393 0.000000 0.000000 0.000000 0.212817 -0.157793 -6.138181 1.505407 -1.029693 -9.550070 -1.565829 -2.132865 8.856637 -0.008143 -0.023950 -0.037704 -1.983465 -0.184984 10.382635 -2.564542 -0.448941 9.297104 0.000000 0.000000 0.000000 0.039080 0.546742 7.825980 -13.145539 -3.396048 1.696179 -53.421963 24.513260 16.274118 -1.314166 -48.874730 8.124887 0.000000 0.000000 0.000000 -4.384279 1.818959 7.004150 25.993169 5.228011 2.868191 51.242716 -20.506338 19.017702 -8.439793 36.609951 -5.458140 0.000000 0.000000 0.000000 
